<svg width="338" height="95" viewBox="0 0 338 95" fill="none" xmlns="http://www.w3.org/2000/svg">
<path d="M128.218 25.9616L136.084 30.7189C137.525 31.5908 139.287 30.3019 138.908 28.6719L136.823 19.7259L143.779 13.6986C145.049 12.5993 144.367 10.5145 142.699 10.3818L133.544 9.60469L129.962 1.15143C129.318 -0.383809 127.119 -0.383809 126.475 1.15143L122.892 9.58574L113.738 10.3628C112.07 10.4955 111.388 12.5804 112.658 13.6797L119.614 19.7069L117.529 28.653C117.15 30.283 118.912 31.5718 120.353 30.6999L128.218 25.9616Z" fill="#CCCCCC"/>
<path d="M166.218 25.9616L174.084 30.7189C175.525 31.5908 177.287 30.3019 176.908 28.6719L174.823 19.7259L181.779 13.6986C183.049 12.5993 182.367 10.5145 180.699 10.3818L171.544 9.60469L167.962 1.15143C167.318 -0.383809 165.119 -0.383809 164.475 1.15143L160.892 9.58574L151.738 10.3628C150.07 10.4955 149.388 12.5804 150.658 13.6797L157.614 19.7069L155.529 28.653C155.15 30.283 156.912 31.5718 158.353 30.6999L166.218 25.9616Z" fill="#CCCCCC"/>
<path d="M204.218 25.9616L212.084 30.7189C213.525 31.5908 215.287 30.3019 214.908 28.6719L212.823 19.7259L219.779 13.6986C221.049 12.5993 220.367 10.5145 218.699 10.3818L209.544 9.60469L205.962 1.15143C205.318 -0.383809 203.119 -0.383809 202.475 1.15143L198.892 9.58574L189.738 10.3628C188.07 10.4955 187.388 12.5804 188.658 13.6797L195.614 19.7069L193.529 28.653C193.15 30.283 194.912 31.5718 196.353 30.6999L204.218 25.9616Z" fill="#CCCCCC"/>
<path d="M242.218 25.9616L250.084 30.7189C251.525 31.5908 253.287 30.3019 252.908 28.6719L250.823 19.7259L257.779 13.6986C259.049 12.5993 258.367 10.5145 256.699 10.3818L247.544 9.60469L243.962 1.15143C243.318 -0.383809 241.119 -0.383809 240.475 1.15143L236.892 9.58574L227.738 10.3628C226.07 10.4955 225.388 12.5804 226.658 13.6797L233.614 19.7069L231.529 28.653C231.15 30.283 232.912 31.5718 234.353 30.6999L242.218 25.9616Z" fill="#CCCCCC"/>
<path d="M35.7839 24.4953V24.4544L52.1888 3.75394H52.2297V21.468H55.7071V24.4953H52.2297V31H48.2615V24.4953H35.7839ZM48.5069 12.7132L41.5931 21.6725L40.9795 21.468H48.2615V11.9768L48.5069 12.7132ZM63.8955 27.4408C63.2955 28.859 62.6954 30.2636 62.0954 31.6546C61.5227 33.0728 60.9363 34.5046 60.3363 35.9501H57.2681C57.8135 34.5046 58.3454 33.0728 58.8635 31.6546C59.3817 30.2636 59.9136 28.859 60.459 27.4408H63.8955ZM76.6645 31.3273C74.8645 31.3273 73.2281 30.9045 71.7553 30.0591C70.3098 29.1863 69.1507 27.959 68.278 26.3772C67.4325 24.768 67.0097 22.8725 67.0097 20.6907C67.0097 18.9179 67.3507 17.2406 68.0325 15.6587C68.7416 14.0496 69.6825 12.5496 70.8553 11.1586C72.028 9.74044 73.3508 8.43132 74.8236 7.23129C76.3236 6.00399 77.8509 4.88578 79.4055 3.87667L82.0237 6.74037C79.8146 7.8313 77.96 9.07224 76.46 10.4632C74.9599 11.8268 73.8008 13.2178 72.9826 14.636C72.1644 16.0542 71.6735 17.3906 71.5098 18.6452L70.528 18.5224C71.2644 16.9951 72.2326 15.8224 73.4326 15.0042C74.6326 14.186 76.1463 13.7769 77.9736 13.7769C79.3646 13.7769 80.6737 14.1451 81.901 14.8815C83.1283 15.6178 84.1238 16.627 84.8874 17.9088C85.6783 19.1906 86.0738 20.6634 86.0738 22.3271C86.0738 24.1544 85.6238 25.7499 84.7238 27.1135C83.851 28.4499 82.6919 29.4863 81.2464 30.2227C79.8282 30.9591 78.3009 31.3273 76.6645 31.3273ZM76.5009 27.7681C77.51 27.7681 78.4236 27.5499 79.2418 27.1135C80.0873 26.6499 80.7555 26.009 81.2464 25.1908C81.7374 24.3726 81.9828 23.4316 81.9828 22.368C81.9828 21.3043 81.7374 20.377 81.2464 19.5861C80.7555 18.7952 80.0873 18.1815 79.2418 17.7452C78.4236 17.3088 77.51 17.0906 76.5009 17.0906C75.4918 17.0906 74.5781 17.3088 73.7599 17.7452C72.9417 18.1543 72.2871 18.727 71.7962 19.4634C71.3053 20.1725 71.0598 20.9634 71.0598 21.8362V22.5316C71.0598 23.4589 71.2917 24.3317 71.7553 25.1499C72.2462 25.9408 72.9008 26.5817 73.719 27.0726C74.5645 27.5363 75.4918 27.7681 76.5009 27.7681Z" fill="white"/>
<path d="M292.719 10.7061L284.142 9.96182L280.793 2.07648C280.191 0.641173 278.135 0.641173 277.533 2.07648L274.184 9.97954L265.625 10.7061C264.065 10.8301 263.428 12.7793 264.615 13.807L271.118 19.4419L269.169 27.8057C268.814 29.3296 270.462 30.5346 271.809 29.7195L279.163 25.2895L286.517 29.7372C287.863 30.5523 289.511 29.3474 289.157 27.8234L287.208 19.4419L293.711 13.807C294.898 12.7793 294.278 10.8301 292.719 10.7061ZM279.163 21.9759V5.49642L282.193 12.6552L289.954 13.3286L284.071 18.4319L285.843 26.016L279.163 21.9759Z" fill="#CCCCCC"/>
<path d="M38.8196 54.0981H52.4073V56.7867H41.6239V63.1469H51.2509V65.8355H41.6239V72.3114H52.8121V75H38.8196V54.0981ZM61.5239 67.4834L64.386 63.0313H67.1035L62.5068 69.4493L61.5239 67.4834ZM67.5661 75H64.3282L55.2215 63.0313H58.5462L67.5661 75ZM61.2348 70.5479L58.0836 75H55.3661L59.9339 68.7554L61.2348 70.5479ZM79.9687 73.9014C79.4291 74.3254 78.7834 74.6627 78.0317 74.9133C77.2801 75.1638 76.5284 75.2891 75.7768 75.2891C74.4662 75.2891 73.3194 75.0289 72.3365 74.5085C71.3535 73.9881 70.5826 73.2654 70.0237 72.3403C69.484 71.3959 69.2142 70.2877 69.2142 69.0156C69.2142 67.7436 69.5033 66.6354 70.0815 65.691C70.679 64.7466 71.4499 64.0238 72.3943 63.5227C73.358 63.0023 74.3891 62.7422 75.4877 62.7422C76.4513 62.7422 77.309 62.8771 78.0606 63.1469C78.8316 63.4167 79.4869 63.7829 80.0265 64.2455L78.6967 65.9801C78.3497 65.7103 77.9257 65.4693 77.4246 65.2573C76.9235 65.0453 76.355 64.9393 75.7189 64.9393C75.0251 64.9393 74.3794 65.1224 73.782 65.4886C73.2038 65.8355 72.7412 66.3174 72.3943 66.9341C72.0666 67.5509 71.9028 68.2447 71.9028 69.0156C71.9028 69.748 72.0763 70.4322 72.4232 71.0682C72.7701 71.685 73.252 72.1765 73.8687 72.5426C74.4854 72.8896 75.1889 73.063 75.9791 73.063C76.4995 73.063 76.9717 72.9859 77.3957 72.8317C77.839 72.6776 78.2341 72.4656 78.581 72.1957L79.9687 73.9014ZM88.9902 75.2891C87.6218 75.2891 86.4461 75.0193 85.4632 74.4796C84.4802 73.9207 83.719 73.169 83.1793 72.2246C82.6589 71.261 82.3987 70.1624 82.3987 68.9289C82.3987 67.7532 82.6975 66.6836 83.2949 65.7199C83.8924 64.7562 84.6923 63.9853 85.6945 63.4071C86.6967 62.8289 87.8145 62.5398 89.048 62.5398C90.6284 62.5398 91.939 63.0023 92.9798 63.9275C94.0205 64.8526 94.724 66.1246 95.0902 67.7436L85.2319 71.2128L84.5959 69.6227L92.6907 66.6739L92.1125 67.0497C91.8812 66.4137 91.4957 65.8644 90.9561 65.4019C90.4164 64.92 89.713 64.6791 88.8457 64.6791C88.1133 64.6791 87.458 64.8622 86.8798 65.2284C86.3016 65.5753 85.8487 66.0572 85.521 66.6739C85.1934 67.2907 85.0295 67.9941 85.0295 68.7843C85.0295 69.6131 85.203 70.3455 85.5499 70.9815C85.8968 71.5983 86.369 72.0897 86.9665 72.4559C87.5833 72.8028 88.2771 72.9763 89.048 72.9763C89.5684 72.9763 90.0695 72.8799 90.5513 72.6872C91.0525 72.4945 91.515 72.2439 91.939 71.9355L93.1822 73.9303C92.5847 74.3351 91.9101 74.6627 91.1585 74.9133C90.4261 75.1638 89.7033 75.2891 88.9902 75.2891ZM98.4591 52.6237H101.148V75H98.4591V52.6237ZM105.8 52.6237H108.488V75H105.8V52.6237ZM118.691 75.2891C117.322 75.2891 116.147 75.0193 115.164 74.4796C114.181 73.9207 113.419 73.169 112.88 72.2246C112.359 71.261 112.099 70.1624 112.099 68.9289C112.099 67.7532 112.398 66.6836 112.995 65.7199C113.593 64.7562 114.393 63.9853 115.395 63.4071C116.397 62.8289 117.515 62.5398 118.749 62.5398C120.329 62.5398 121.64 63.0023 122.68 63.9275C123.721 64.8526 124.425 66.1246 124.791 67.7436L114.932 71.2128L114.296 69.6227L122.391 66.6739L121.813 67.0497C121.582 66.4137 121.196 65.8644 120.657 65.4019C120.117 64.92 119.413 64.6791 118.546 64.6791C117.814 64.6791 117.158 64.8622 116.58 65.2284C116.002 65.5753 115.549 66.0572 115.222 66.6739C114.894 67.2907 114.73 67.9941 114.73 68.7843C114.73 69.6131 114.904 70.3455 115.25 70.9815C115.597 71.5983 116.07 72.0897 116.667 72.4559C117.284 72.8028 117.978 72.9763 118.749 72.9763C119.269 72.9763 119.77 72.8799 120.252 72.6872C120.753 72.4945 121.216 72.2439 121.64 71.9355L122.883 73.9303C122.285 74.3351 121.611 74.6627 120.859 74.9133C120.127 75.1638 119.404 75.2891 118.691 75.2891ZM130.559 63.0313L130.79 65.9512L130.675 65.4886C131.06 64.602 131.687 63.8986 132.554 63.3782C133.421 62.8385 134.423 62.5687 135.561 62.5687C136.698 62.5687 137.623 62.906 138.336 63.5805C139.068 64.2358 139.444 65.0935 139.463 66.1535V75H136.746V67.1076C136.727 66.4523 136.534 65.9223 136.168 65.5175C135.821 65.0935 135.272 64.8815 134.52 64.8815C133.826 64.8815 133.2 65.0742 132.641 65.4597C132.082 65.8452 131.638 66.3752 131.311 67.0497C131.002 67.7243 130.848 68.5049 130.848 69.3915V75H128.16V63.0313H130.559ZM145.296 57.7696H147.984V63.0891H151.28V65.1995H147.984V75H145.296V65.1995H143.098V63.0891H145.296V57.7696Z" fill="white"/>
<path d="M188.703 74.1913C187.651 74.1913 186.695 73.9442 185.834 73.4501C184.989 72.94 184.312 72.2227 183.801 71.2982C183.307 70.3577 183.06 69.2499 183.06 67.9747C183.06 66.9386 183.259 65.9583 183.658 65.0337C184.072 64.0933 184.622 63.2166 185.308 62.4036C185.993 61.5748 186.766 60.8096 187.627 60.1083C188.504 59.391 189.396 58.7374 190.305 58.1477L191.835 59.8214C190.544 60.459 189.46 61.1842 188.583 61.9972C187.707 62.7942 187.029 63.6071 186.551 64.436C186.073 65.2649 185.786 66.0459 185.69 66.7792L185.116 66.7074C185.547 65.8148 186.113 65.1294 186.814 64.6512C187.515 64.173 188.4 63.9339 189.468 63.9339C190.281 63.9339 191.046 64.1491 191.763 64.5795C192.481 65.0098 193.063 65.5996 193.509 66.3488C193.971 67.098 194.202 67.9587 194.202 68.9311C194.202 69.9991 193.939 70.9315 193.413 71.7285C192.903 72.5096 192.226 73.1153 191.381 73.5457C190.552 73.9761 189.659 74.1913 188.703 74.1913ZM188.607 72.1111C189.197 72.1111 189.731 71.9836 190.209 71.7285C190.703 71.4576 191.094 71.083 191.381 70.6048C191.668 70.1266 191.811 69.5766 191.811 68.955C191.811 68.3333 191.668 67.7914 191.381 67.3291C191.094 66.8668 190.703 66.5082 190.209 66.2532C189.731 65.9981 189.197 65.8706 188.607 65.8706C188.018 65.8706 187.484 65.9981 187.005 66.2532C186.527 66.4923 186.145 66.827 185.858 67.2574C185.571 67.6718 185.427 68.1341 185.427 68.6442V69.0506C185.427 69.5926 185.563 70.1027 185.834 70.5809C186.121 71.0431 186.503 71.4177 186.981 71.7046C187.476 71.9756 188.018 72.1111 188.607 72.1111ZM199.126 71.9198C198.775 72.7487 198.425 73.5696 198.074 74.3826C197.739 75.2114 197.396 76.0483 197.046 76.8931H195.252C195.571 76.0483 195.882 75.2114 196.185 74.3826C196.488 73.5696 196.799 72.7487 197.117 71.9198H199.126ZM205.895 74.1913C205.051 74.1913 204.238 74.0398 203.457 73.737C202.691 73.4341 202.07 73.0436 201.592 72.5654L202.835 70.7721C203.154 71.1388 203.576 71.4337 204.102 71.6568C204.644 71.88 205.178 71.9916 205.704 71.9916C206.294 71.9916 206.812 71.864 207.258 71.609C207.721 71.338 208.079 70.9794 208.334 70.533C208.589 70.0708 208.717 69.5448 208.717 68.955C208.717 68.3174 208.597 67.7515 208.358 67.2574C208.135 66.7632 207.792 66.3807 207.33 66.1097C206.884 65.8228 206.318 65.6793 205.632 65.6793C205.075 65.6793 204.556 65.759 204.078 65.9184C203.6 66.0619 203.106 66.285 202.596 66.5879H202.572V58.2672H210.104V60.4909H204.58V64.5077L204.27 64.0295C204.541 63.9339 204.843 63.8622 205.178 63.8143C205.529 63.7506 205.864 63.7187 206.182 63.7187C207.25 63.7187 208.143 63.9578 208.86 64.436C209.593 64.8983 210.143 65.5199 210.51 66.301C210.893 67.082 211.084 67.9428 211.084 68.8833C211.084 69.8715 210.861 70.7721 210.414 71.5851C209.968 72.3821 209.354 73.0197 208.573 73.4979C207.792 73.9601 206.9 74.1913 205.895 74.1913ZM218.411 74.1913C217.566 74.1913 216.753 74.0398 215.972 73.737C215.207 73.4341 214.585 73.0436 214.107 72.5654L215.35 70.7721C215.669 71.1388 216.092 71.4337 216.618 71.6568C217.16 71.88 217.693 71.9916 218.22 71.9916C218.809 71.9916 219.327 71.864 219.774 71.609C220.236 71.338 220.595 70.9794 220.85 70.533C221.105 70.0708 221.232 69.5448 221.232 68.955C221.232 68.3174 221.113 67.7515 220.874 67.2574C220.65 66.7632 220.308 66.3807 219.845 66.1097C219.399 65.8228 218.833 65.6793 218.148 65.6793C217.59 65.6793 217.072 65.759 216.594 65.9184C216.115 66.0619 215.621 66.285 215.111 66.5879H215.087V58.2672H222.619V60.4909H217.096V64.5077L216.785 64.0295C217.056 63.9339 217.359 63.8622 217.693 63.8143C218.044 63.7506 218.379 63.7187 218.698 63.7187C219.766 63.7187 220.658 63.9578 221.376 64.436C222.109 64.8983 222.659 65.5199 223.025 66.301C223.408 67.082 223.599 67.9428 223.599 68.8833C223.599 69.8715 223.376 70.7721 222.93 71.5851C222.483 72.3821 221.87 73.0197 221.089 73.4979C220.308 73.9601 219.415 74.1913 218.411 74.1913ZM236.091 58.2672L229.802 74H227.196L232.863 60.1561L233.676 60.4909H225.809V58.2672H236.091ZM248.253 64.1013L248.468 66.9705L248.349 66.5879C248.604 65.9822 248.97 65.4721 249.448 65.0577C249.943 64.6273 250.453 64.3005 250.979 64.0773C251.521 63.8382 251.991 63.7187 252.389 63.7187L252.27 65.9184C251.521 65.8706 250.859 66.0141 250.285 66.3488C249.727 66.6835 249.281 67.1299 248.946 67.6878C248.627 68.2457 248.468 68.8434 248.468 69.481V74H246.268V64.1013H248.253ZM259.428 74.2391C258.297 74.2391 257.324 74.0159 256.511 73.5696C255.698 73.1074 255.069 72.4857 254.622 71.7046C254.192 70.9076 253.977 69.9991 253.977 68.9789C253.977 68.0066 254.224 67.1219 254.718 66.3249C255.212 65.5279 255.874 64.8903 256.703 64.4121C257.532 63.9339 258.456 63.6948 259.476 63.6948C260.783 63.6948 261.867 64.0773 262.728 64.8425C263.589 65.6076 264.171 66.6596 264.473 67.9986L256.32 70.8678L255.794 69.5527L262.489 67.1139L262.011 67.4247C261.819 66.8987 261.501 66.4444 261.054 66.0619C260.608 65.6634 260.026 65.4641 259.309 65.4641C258.703 65.4641 258.161 65.6156 257.683 65.9184C257.205 66.2053 256.83 66.6038 256.559 67.1139C256.288 67.624 256.153 68.2058 256.153 68.8593C256.153 69.5448 256.296 70.1505 256.583 70.6765C256.87 71.1866 257.261 71.5931 257.755 71.8959C258.265 72.1828 258.839 72.3263 259.476 72.3263C259.907 72.3263 260.321 72.2466 260.72 72.0872C261.134 71.9278 261.517 71.7206 261.867 71.4655L262.895 73.1153C262.401 73.4501 261.843 73.721 261.222 73.9283C260.616 74.1355 260.018 74.2391 259.428 74.2391ZM270.926 74.2869L265.427 64.1013H268.057L271.787 71.9676L270.424 71.9198L273.843 64.1013H276.33L271.046 74.2869H270.926ZM278.724 64.1013H280.948V74H278.724V64.1013ZM278.557 60.5148C278.557 60.1641 278.692 59.8692 278.963 59.6301C279.25 59.391 279.561 59.2714 279.896 59.2714C280.231 59.2714 280.526 59.391 280.781 59.6301C281.052 59.8692 281.187 60.1641 281.187 60.5148C281.187 60.8814 281.052 61.1842 280.781 61.4233C280.526 61.6465 280.231 61.7581 279.896 61.7581C279.561 61.7581 279.25 61.6385 278.963 61.3994C278.692 61.1603 278.557 60.8654 278.557 60.5148ZM289.386 74.2391C288.254 74.2391 287.282 74.0159 286.469 73.5696C285.656 73.1074 285.026 72.4857 284.58 71.7046C284.15 70.9076 283.934 69.9991 283.934 68.9789C283.934 68.0066 284.182 67.1219 284.676 66.3249C285.17 65.5279 285.831 64.8903 286.66 64.4121C287.489 63.9339 288.414 63.6948 289.434 63.6948C290.741 63.6948 291.825 64.0773 292.686 64.8425C293.546 65.6076 294.128 66.6596 294.431 67.9986L286.278 70.8678L285.752 69.5527L292.446 67.1139L291.968 67.4247C291.777 66.8987 291.458 66.4444 291.012 66.0619C290.566 65.6634 289.984 65.4641 289.266 65.4641C288.661 65.4641 288.119 65.6156 287.641 65.9184C287.162 66.2053 286.788 66.6038 286.517 67.1139C286.246 67.624 286.11 68.2058 286.11 68.8593C286.11 69.5448 286.254 70.1505 286.541 70.6765C286.828 71.1866 287.218 71.5931 287.712 71.8959C288.222 72.1828 288.796 72.3263 289.434 72.3263C289.864 72.3263 290.279 72.2466 290.677 72.0872C291.092 71.9278 291.474 71.7206 291.825 71.4655L292.853 73.1153C292.359 73.4501 291.801 73.721 291.179 73.9283C290.573 74.1355 289.976 74.2391 289.386 74.2391ZM303.273 64.1013L306.19 70.7721L305.76 70.82L308.486 64.1013H310.661L306.118 74.5978L302.938 67.8073L300.045 74.5978L295.455 64.1013H297.63L300.715 71.083L299.95 70.9395L302.149 65.8228L301.36 64.1013H303.273ZM315.822 74.1913C315.12 74.1913 314.435 74.0717 313.766 73.8326C313.112 73.5776 312.57 73.203 312.14 72.7089L313.072 71.4177C313.487 71.8162 313.909 72.1191 314.339 72.3263C314.786 72.5176 315.224 72.6132 315.654 72.6132C315.973 72.6132 316.268 72.5734 316.539 72.4937C316.81 72.414 317.025 72.2864 317.185 72.1111C317.36 71.9198 317.448 71.6648 317.448 71.346C317.448 70.9953 317.328 70.7164 317.089 70.5091C316.866 70.3019 316.571 70.1345 316.204 70.007C315.854 69.8795 315.479 69.76 315.081 69.6484C314.268 69.3774 313.646 69.0028 313.216 68.5246C312.785 68.0464 312.57 67.4646 312.57 66.7792C312.57 66.2532 312.698 65.767 312.953 65.3207C313.224 64.8584 313.614 64.4838 314.124 64.1969C314.65 63.91 315.296 63.7665 316.061 63.7665C316.746 63.7665 317.36 63.8542 317.902 64.0295C318.444 64.1889 318.954 64.4599 319.432 64.8425L318.548 66.2292C318.261 65.9264 317.918 65.7032 317.519 65.5598C317.121 65.4163 316.762 65.3366 316.443 65.3207C316.173 65.3047 315.909 65.3446 315.654 65.4402C315.415 65.5359 315.216 65.6713 315.057 65.8467C314.897 66.022 314.818 66.2292 314.818 66.4683C314.818 66.8031 314.929 67.0741 315.152 67.2813C315.376 67.4885 315.662 67.6559 316.013 67.7834C316.38 67.895 316.738 68.0145 317.089 68.142C317.583 68.2855 318.022 68.4768 318.404 68.7159C318.787 68.955 319.09 69.2499 319.313 69.6006C319.552 69.9512 319.671 70.3896 319.671 70.9156C319.671 71.5054 319.528 72.0553 319.241 72.5654C318.97 73.0595 318.548 73.458 317.974 73.7609C317.416 74.0478 316.699 74.1913 315.822 74.1913Z" fill="white"/>
<line x1="164.999" y1="76.3136" x2="164.5" y2="48.0262" stroke="#D9D9D9" stroke-width="3"/>
</svg>
