<svg width="41" height="42" viewBox="0 0 41 42" fill="none" xmlns="http://www.w3.org/2000/svg">
<path fill-rule="evenodd" clip-rule="evenodd" d="M20.4996 0.922363C17.2507 0.922363 14.1349 2.21298 11.8376 4.5103C9.54025 6.80763 8.24963 9.92346 8.24963 13.1724V17.0005L6.41213 15.6224C6.19763 15.4615 5.95356 15.3444 5.69383 15.2779C5.4341 15.2114 5.16381 15.1966 4.89839 15.2345C4.63297 15.2725 4.37762 15.3623 4.14691 15.4989C3.9162 15.6355 3.71466 15.8162 3.55379 16.0307C3.39292 16.2452 3.27588 16.4893 3.20933 16.749C3.14279 17.0087 3.12806 17.279 3.16598 17.5444C3.2039 17.8099 3.29372 18.0652 3.43032 18.2959C3.56693 18.5266 3.74763 18.7282 3.96213 18.889L7.77188 21.7474C6.86538 24.132 4.65425 26.6269 1.07521 28.7768C0.840452 28.9209 0.636943 29.1106 0.476693 29.3346C0.316443 29.5586 0.202702 29.8125 0.142183 30.0812C0.0816648 30.3499 0.0755961 30.6281 0.124335 30.8992C0.173074 31.1703 0.275634 31.4288 0.425958 31.6597C2.70854 35.0835 6.33046 37.6724 10.2913 37.6724C13.9336 37.6724 16.4306 41.7557 20.4996 41.7557C24.6054 41.7557 27.0513 37.6724 30.708 37.6724C34.6688 37.6724 38.2907 35.0835 40.5733 31.6597C40.7236 31.4288 40.8262 31.1703 40.8749 30.8992C40.9237 30.6281 40.9176 30.3499 40.8571 30.0812C40.7966 29.8125 40.6828 29.5586 40.5226 29.3346C40.3623 29.1106 40.1588 28.9209 39.924 28.7768C36.345 26.6269 34.1339 24.132 33.2274 21.7474L37.0371 18.889C37.4703 18.5641 37.7567 18.0805 37.8333 17.5444C37.9099 17.0084 37.7704 16.4639 37.4455 16.0307C37.1206 15.5975 36.6369 15.3111 36.1009 15.2345C35.5648 15.158 35.0203 15.2975 34.5871 15.6224L32.7496 17.0005V13.1724C32.7496 9.92346 31.459 6.80763 29.1617 4.5103C26.8644 2.21298 23.7485 0.922363 20.4996 0.922363Z" fill="#CCCCCC"/>
</svg>
