<svg width="45" height="45" viewBox="0 0 45 45" fill="none" xmlns="http://www.w3.org/2000/svg">
<path d="M13.2253 0.255371H31.7753C38.842 0.255371 44.5837 5.99704 44.5837 13.0637V31.6137C44.5837 35.0107 43.2342 38.2685 40.8322 40.6706C38.4302 43.0726 35.1723 44.422 31.7753 44.422H13.2253C6.15866 44.422 0.416992 38.6804 0.416992 31.6137V13.0637C0.416992 9.66672 1.76644 6.40887 4.16847 4.00685C6.5705 1.60482 9.82835 0.255371 13.2253 0.255371ZM12.7837 4.67204C10.6752 4.67204 8.65308 5.50963 7.16216 7.00054C5.67125 8.49145 4.83366 10.5136 4.83366 12.622V32.0554C4.83366 36.45 8.38908 40.0054 12.7837 40.0054H32.217C34.3255 40.0054 36.3476 39.1678 37.8385 37.6769C39.3294 36.186 40.167 34.1638 40.167 32.0554V12.622C40.167 8.22745 36.6116 4.67204 32.217 4.67204H12.7837ZM34.0941 7.98454C34.8262 7.98454 35.5283 8.27537 36.046 8.79305C36.5637 9.31072 36.8545 10.0128 36.8545 10.745C36.8545 11.4771 36.5637 12.1792 36.046 12.6969C35.5283 13.2145 34.8262 13.5054 34.0941 13.5054C33.362 13.5054 32.6598 13.2145 32.1422 12.6969C31.6245 12.1792 31.3337 11.4771 31.3337 10.745C31.3337 10.0128 31.6245 9.31072 32.1422 8.79305C32.6598 8.27537 33.362 7.98454 34.0941 7.98454ZM22.5003 11.297C25.4288 11.297 28.2373 12.4604 30.308 14.5311C32.3787 16.6018 33.542 19.4103 33.542 22.3387C33.542 25.2671 32.3787 28.0756 30.308 30.1463C28.2373 32.2171 25.4288 33.3804 22.5003 33.3804C19.5719 33.3804 16.7634 32.2171 14.6927 30.1463C12.622 28.0756 11.4587 25.2671 11.4587 22.3387C11.4587 19.4103 12.622 16.6018 14.6927 14.5311C16.7634 12.4604 19.5719 11.297 22.5003 11.297ZM22.5003 15.7137C20.7433 15.7137 19.0582 16.4117 17.8157 17.6541C16.5733 18.8966 15.8753 20.5816 15.8753 22.3387C15.8753 24.0958 16.5733 25.7809 17.8157 27.0233C19.0582 28.2657 20.7433 28.9637 22.5003 28.9637C24.2574 28.9637 25.9425 28.2657 27.1849 27.0233C28.4273 25.7809 29.1253 24.0958 29.1253 22.3387C29.1253 20.5816 28.4273 18.8966 27.1849 17.6541C25.9425 16.4117 24.2574 15.7137 22.5003 15.7137Z" fill="#CCCCCC"/>
</svg>
