<svg width="46" height="38" viewBox="0 0 46 38" fill="none" xmlns="http://www.w3.org/2000/svg">
<path d="M45.6636 4.91976C43.9953 5.67809 42.1969 6.17643 40.3336 6.41476C42.2403 5.26643 43.7136 3.44643 44.4069 1.25809C42.6086 2.34143 40.6152 3.09976 38.5136 3.53309C36.8019 1.66976 34.3969 0.586426 31.6669 0.586426C26.5753 0.586426 22.4152 4.74643 22.4152 9.88143C22.4152 10.6181 22.5019 11.3331 22.6536 12.0048C14.9403 11.6148 8.07192 7.90976 3.50025 2.29809C2.69858 3.66309 2.24358 5.26643 2.24358 6.95643C2.24358 10.1848 3.86858 13.0448 6.38192 14.6698C4.84358 14.6698 3.41358 14.2364 2.15691 13.5864V13.6514C2.15691 18.1581 5.36358 21.9281 9.61025 22.7731C8.24682 23.1462 6.81545 23.1981 5.42858 22.9248C6.01706 24.7718 7.16958 26.388 8.72412 27.5461C10.2787 28.7042 12.1571 29.3461 14.0952 29.3814C10.8098 31.9824 6.73724 33.3883 2.54691 33.3681C1.81025 33.3681 1.07358 33.3248 0.336914 33.2381C4.45358 35.8814 9.35025 37.4198 14.5936 37.4198C31.6669 37.4198 41.0486 23.2498 41.0486 10.9648C41.0486 10.5531 41.0486 10.1631 41.0269 9.75142C42.8469 8.45143 44.4069 6.80476 45.6636 4.91976Z" fill="#CCCCCC"/>
</svg>
